<svg version="1" xmlns="http://www.w3.org/2000/svg" width="1386.667" height="1386.667" viewBox="0 0 1040.000000 1040.000000"><path d="M676.4 106.7c-11.8 2-22.7 7.8-31.7 16.8-5.1 5.1-7.8 7-8.8 6.5-.8-.4-6.8-2.1-13.4-3.8-10.2-2.6-15.4-3.8-30-6.8-2.4-.5-8.1-1.3-13.1-1.9-4.4-.6-10.7-1.4-14.4-2-17.1-2.6-66.4-2.6-87 0-1.9.2-5.5.7-8 1-7 .9-11.4 1.5-14 2-1.4.3-6.3 1.2-11 2-21.1 3.7-49.5 12.1-75.5 22.5-10.5 4.1-39.6 18.4-46.3 22.6-2.9 1.9-5.5 3.4-5.8 3.4-1.2 0-34.7 22.5-37.6 25.3-.7.7-3.1 2.6-5.4 4.2-9.9 7.3-23.8 19.8-39.4 35.6-11.9 12-12.4 12.6-20 21.9-2.5 3-4.7 5.7-5.1 6-.3.3-1.8 2.3-3.5 4.5-1.6 2.2-3.7 4.9-4.6 5.9-2.9 3.2-18 25.6-23.7 35.1-12.7 21.4-25 47.2-32.6 68.5-2.1 5.8-4 11.2-4.3 12-.3.8-.6 1.7-.7 2 0 .3-.8 3-1.8 6-5 16.4-8.8 31.8-11.3 46.9-.3 1.8-.7 4.3-1 5.4-.2 1.1-.8 5.7-1.4 10.1-.6 4.5-1.3 9.5-1.5 11.3-2.6 18.3-2.6 67.4.1 86.9.3 2.2.7 5.9.9 8.4.2 2.5.4 4.5.5 4.5.2 0 .8 3.3 1.5 8.5 4.4 32.6 18 75.2 35.4 111 12.8 26.5 36.5 62.8 53.6 82.5 13.3 15.2 29.2 31.4 42 42.6 2.8 2.4 5.2 4.6 5.5 4.9 3 3.2 39.2 30 40.5 30 .2 0 3 1.7 6.2 3.8 3.2 2.1 8.9 5.6 12.7 7.7l6.8 3.8-.7 5.1c-2.5 17.2 3.7 36.3 16 48.9 7.4 7.6 19.2 14 30 16.3 7.5 1.6 21.3 1.1 28.4-1.1 14-4.3 23.3-11.5 34.1-26.5 1.4-1.9 2-2 7-1.1 3 .6 6.9 1.3 8.5 1.6 10.3 1.8 26.8 3.8 42 5.1 6.4.5 47.6.5 53.5 0 2.5-.3 7.9-.7 12.2-1.1 4.2-.3 8.6-.8 9.8-1 1.2-.2 4.8-.7 7.9-1.1 3.1-.3 7.4-1 9.6-1.4 2.2-.5 5.6-1.1 7.5-1.5 38.3-6.3 89.2-24.9 125-45.8 7.7-4.5 29.1-18 31.5-20 .6-.4 5.3-4 10.5-7.9 5.2-3.9 12.2-9.4 15.5-12.2 3.3-2.8 7.1-6 8.4-7.1 3.7-2.9 31.1-30.3 35.1-35 34.8-40.6 58-79.3 75.7-126.5 6-16.1 14.2-45.2 17.3-61.5 1.9-10.2 2.1-11 2.1-12.5.1-.8.5-3.3.9-5.5.9-4.4 1.9-12.7 2.5-21.3.3-3.1.8-8.4 1.1-11.7.7-7 .7-41.6 0-52.5-.7-11.2-3.5-33.7-5.2-42.7-.8-4.3-1.7-9.4-2-11.3-.3-1.9-.8-3.8-1-4.1-.2-.3-.6-2-.9-3.8-5-28.3-23.8-77.3-41.7-108.6-4.7-8.1-15-24.8-15.8-25.5-.3-.3-3-4.1-6-8.5s-6-8.7-6.7-9.5c-.7-.8-4-5.1-7.5-9.5-3.4-4.4-6.5-8.2-6.8-8.5-.3-.3-4.3-4.7-9-9.9-16.6-18.5-42.6-42.2-57-52.1-1.9-1.4-4-2.9-4.6-3.5-.7-.6-3.9-2.9-7.3-5.1l-6.2-3.9.7-4.5c2.2-14 .6-26-5.1-37.5-5.8-12-14.3-20.6-26.1-26.5-11.6-5.7-23.1-7.4-36-5.3zM541 137.4c8 .2 15.2.7 16 1 .8.3 4.7.7 8.5 1 7.8.6 9.4.9 25 3.7 9.1 1.7 26 5.6 36.1 8.5 1.9.5 2.1 1.2 1.8 5.2-.8 12-.5 15.3 2.1 24.5 5.4 18.6 23.2 35.2 42.5 39.7 11.6 2.8 26.4 1.3 36.5-3.5 3-1.4 5.9-2.5 6.4-2.5.6 0 1.1-.4 1.1-.9s.8-1.2 1.8-1.5c.9-.3 4.4-3.1 7.6-6.1l5.8-5.5 7.2 5.2c7.8 5.7 18.7 14.1 22.6 17.4 22.6 19.2 44.4 42.2 60.7 63.9 16.1 21.5 30.7 46.1 41.5 70 3.7 8.3 5.9 13.3 6.3 14.5.1.3.6 1.6 1.2 3 7.6 18.2 18.1 55.8 20.9 74.7.3 2.1.7 4.5.9 5.3.2.8.7 4 1 7 .3 3 .8 6.8 1 8.5 2.7 19.3 2.6 64.7 0 86-.9 7.1-2.2 15.8-3 20.5-.1.8-.6 3.5-1 6-2.1 13.7-15.5 60.3-19.4 67.8-.5.9-2.6 5.7-4.6 10.7-3.4 8.2-13.2 28-18.8 38-18.8 33.6-47.3 68.6-78.1 96-14.7 13.1-28.6 23.4-52.6 39.1-10.1 6.6-36 19.7-51.9 26.4-12.2 5-41.7 15.3-47.6 16.4-1.6.3-7.7 1.7-13.5 3.1-5.8 1.3-12.1 2.7-14 3-1.9.3-4.6.7-6 1-5.1.9-8.6 1.5-14 2.1-3 .3-6.6.7-8 1-7.3 1.2-22.8 1.9-42 1.8-18.7 0-26.5-.3-43-1.9-3.7-.4-21.3-3.1-26.5-4.1-1.6-.3-3.8-.6-4.7-.7-1.4-.1-1.8-1.1-1.9-4.2-.3-16.9-6-30.6-17.4-42-11.6-11.6-23.4-16.6-40.2-17.1-7.8-.2-11.6.2-16.4 1.7-12.9 4-24.3 11.6-30.4 20.2-1.2 1.7-1.8 1.5-10.1-3.4-14.4-8.5-31.9-20.5-44.8-30.9-16.3-13-40.7-37-52.9-52-4.3-5.2-8.5-10.3-9.3-11.3-3-3.7-14.1-19.4-17.8-25.2-2.1-3.3-4.7-7.2-5.7-8.7-1.1-1.5-1.9-2.9-1.9-3.2 0-.2-1.7-3.3-3.8-6.7-5.8-9.5-17.4-33.7-23-47.9-8.4-21-17.5-52.3-19.7-67.6-.2-1.1-.8-4.5-1.4-7.5-.6-3-1.3-7.7-1.6-10.4-.3-2.8-.8-6.1-1-7.5-.3-1.4-.7-5.7-1.1-9.5-.3-3.9-.7-8.6-1-10.5-.5-4.4-.5-44.2 0-49.5.2-2.2.7-8.1 1.1-13 .3-5 .8-9.7 1-10.5.2-.8.7-3.8 1-6.5.9-6.7 6.2-34.1 7.6-38.5.5-1.9 1.9-6.7 2.9-10.6 2.4-8.7 9.5-29.8 11.5-34.1.8-1.7 1.5-3.4 1.5-3.7 0-.3 1.4-3.5 3-7.1 1.7-3.6 3-6.8 3-7.1 0-.2 2.6-5.7 5.8-12.2 18.3-36.9 41.4-69 71.3-99.1 4.1-4.1 7-6.9 20.6-19.3 6.8-6.2 26.5-21.1 36.9-28 34.9-23 69.5-38.7 109.9-49.9 6.1-1.7 12.1-3.3 13.5-3.5 1.4-.3 4.5-1 7-1.5 2.5-.6 5.6-1.3 7-1.5 1.4-.2 3.4-.6 4.6-.9 1.1-.2 4.5-.7 7.5-1.1 3-.3 5.7-.8 6-1 .3-.2 3.3-.6 6.5-.9 3.2-.4 7.5-.8 9.4-1.1 1.9-.3 11.6-.7 21.5-1.1 9.9-.3 18.2-.7 18.3-.9.2-.1.9-.1 1.5.1.7.2 7.7.6 15.7.9z"/><path d="M374.7 455.4c-3.2.7-5.9 1.3-6 1.4-.1 0-1.5.6-3.2 1.2-5.4 1.9-7.9 3.3-14 7.8-10.1 7.5-17.1 17.3-21.1 29.7-2 6.5-2.6 21.9-1 30.5 1 6 6.8 17.3 11.9 23.6 4 4.8 12.7 12.4 14.3 12.4.4 0 1.5.6 2.3 1.4 1.7 1.4 10.9 5.1 15.8 6.2 4.6 1.1 20.4 1.2 24.1.2 1.9-.5 4.3-1.1 5.4-1.3 5.4-1.1 17.3-8.2 23.2-13.9 14.3-13.8 20.6-32.5 17.5-52-1.2-7.1-1.5-7.9-5.9-17-4.2-8.7-15-19.8-23.5-24.3-12.1-6.4-27-8.6-39.8-5.9z"/></svg>